<?xml version="1.0" standalone="no"?>
<!DOCTYPE svg PUBLIC "-//W3C//DTD SVG 20010904//EN"
 "http://www.w3.org/TR/2001/REC-SVG-20010904/DTD/svg10.dtd">
<svg version="1.0" xmlns="http://www.w3.org/2000/svg"
 width="630.000000pt" height="630.000000pt" viewBox="0 0 630.000000 630.000000"
 preserveAspectRatio="xMidYMid meet">
<metadata>
Created by potrace 1.16, written by Peter Selinger 2001-2019
</metadata>
<g transform="translate(0.000000,630.000000) scale(0.100000,-0.100000)"
fill="#000000" stroke="none">
<path d="M940 6285 c-415 -65 -760 -360 -884 -755 -58 -183 -56 -92 -56 -2380
0 -2288 -2 -2198 56 -2380 105 -334 366 -597 704 -710 185 -62 82 -60 2390
-60 2308 0 2205 -2 2390 60 173 58 302 137 432 266 171 170 277 380 313 621
22 145 22 4258 1 4403 -74 491 -445 862 -936 936 -136 20 -4279 19 -4410 -1z
m3266 -934 c91 -56 126 -183 57 -209 -16 -6 -75 -13 -133 -16 -402 -23 -615
-136 -602 -321 7 -91 48 -147 139 -188 73 -32 163 -50 378 -77 219 -27 320
-45 425 -76 257 -77 403 -226 471 -479 32 -120 31 -306 -4 -437 -24 -91 -102
-278 -116 -278 -4 0 -17 21 -29 46 -21 42 -21 48 -8 63 40 45 60 114 60 211
-1 108 -19 190 -69 296 -41 89 -90 144 -182 204 -97 64 -202 107 -500 205
-441 146 -508 189 -568 365 -96 280 22 519 315 641 168 71 302 89 366 50z
m-770 -1055 c341 -72 636 -227 873 -459 279 -273 434 -572 502 -967 17 -96 17
-371 0 -475 -116 -732 -656 -1287 -1396 -1438 -94 -19 -142 -22 -330 -22 -190
0 -236 3 -333 23 -322 65 -622 214 -858 426 -251 227 -451 572 -518 896 -43
213 -46 460 -6 664 100 513 443 963 916 1199 186 93 359 143 619 181 17 2 116
3 220 1 156 -3 212 -8 311 -29z"/>
<path d="M2553 3941 c-111 -28 -223 -122 -276 -230 -30 -61 -32 -73 -32 -171
0 -97 2 -110 31 -171 127 -267 492 -327 693 -114 199 210 138 533 -126 660
-49 24 -73 28 -158 31 -55 2 -114 -1 -132 -5z"/>
<path d="M3587 3819 c-115 -39 -197 -111 -250 -218 -60 -122 -46 -291 34 -407
63 -92 167 -155 288 -175 176 -29 361 64 441 222 142 278 -62 600 -379 599
-49 -1 -97 -8 -134 -21z"/>
<path d="M1898 3101 c-300 -96 -394 -462 -175 -681 224 -224 609 -139 708 159
30 88 24 212 -13 294 -88 190 -320 292 -520 228z"/>
<path d="M4050 2886 c-149 -33 -266 -140 -310 -284 -49 -158 -6 -311 120 -425
86 -77 157 -102 291 -102 101 0 108 1 180 37 313 155 315 586 4 738 -98 48
-182 59 -285 36z"/>
<path d="M2360 2228 c-133 -15 -258 -105 -321 -233 -32 -66 -34 -75 -34 -175
0 -100 2 -109 34 -175 83 -168 268 -264 450 -234 231 37 393 256 352 476 -41
226 -242 368 -481 341z"/>
<path d="M3350 2102 c-114 -38 -203 -115 -254 -222 -29 -61 -31 -72 -31 -175
0 -102 2 -114 30 -170 133 -267 492 -324 694 -110 134 142 155 343 52 502 -46
71 -106 123 -187 160 -78 36 -219 43 -304 15z"/>
</g>
</svg>
